<?xml version="1.0" encoding="UTF-8"?>
<svg width="227px" height="83px" viewBox="0 0 227 83" version="1.1" xmlns="http://www.w3.org/2000/svg" xmlns:xlink="http://www.w3.org/1999/xlink">
    <!-- Generator: sketchtool 51.3 (57544) - http://www.bohemiancoding.com/sketch -->
    <title>25A874B1-D88F-46D8-A1E2-7E64ED9C36C3</title>
    <desc>Created with sketchtool.</desc>
    <defs></defs>
    <g id="Cards-UI" stroke="none" stroke-width="1" fill="none" fill-rule="evenodd">
        <g id="New-album" transform="translate(-775.000000, -180.000000)">
            <g id="Create-New-User" transform="translate(240.000000, 99.000000)">
                <g id="Visual" transform="translate(450.000000, 0.000000)">
                    <g>
                        <path d="M85.5,127.82438 L101.311388,112.339673" id="Line-20" stroke="#EF2596" stroke-linecap="square"></path>
                        <path d="M300.5,141.535124 L311.68034,130.585783" id="Line-21" stroke="#FC8E2F" stroke-linecap="square"></path>
                        <path d="M137.5,158.183884 L143.022681,152.775309" id="Line-22" stroke="#979797" stroke-linecap="square"></path>
                        <path d="M186,96.1350667 L200.142136,82.285124" id="Line-23" stroke="#C5C5C5" stroke-linecap="square"></path>
                        <path d="M154.764706,112.414195 L154.764706,106.768595 L157.235294,106.768595 L157.235294,112.414195 L163,112.414195 L163,114.833738 L157.235294,114.833738 L157.235294,120.479339 L154.764706,120.479339 L154.764706,114.833738 L149,114.833738 L149,112.414195 L154.764706,112.414195 Z" id="Combined-Shape" fill="#8954BA"></path>
                        <path d="M165.117647,157.809431 L165.117647,153.77686 L166.882353,153.77686 L166.882353,157.809431 L171,157.809431 L171,159.537676 L166.882353,159.537676 L166.882353,163.570248 L165.117647,163.570248 L165.117647,159.537676 L161,159.537676 L161,157.809431 L165.117647,157.809431 Z" id="Combined-Shape-Copy-5" fill="#5D38DB"></path>
                        <g id="photo" transform="translate(179.000000, 117.541322)" fill-rule="nonzero">
                            <path d="M36.3762313,0 L1.0393543,0 C0.465356346,0 0,0.428977484 0,0.958103606 L0,29.7003136 C0.000292309262,30.2294397 0.465940964,30.6581477 1.03993892,30.6577885 C1.39256133,30.6576088 1.7210195,30.4926106 1.91238463,30.2195596 L10.5699029,17.8048111 L15.8953879,22.7139805 C16.1199789,22.9317028 16.4465858,23.0334682 16.7684183,22.9860435 C17.0894713,22.9467924 17.3723292,22.7717344 17.5333916,22.5127851 L24.883508,10.6537492 L35.447175,30.1294707 C35.62334,30.453629 35.9829779,30.6583274 36.3763287,30.6583274 C36.4569086,30.6586867 36.5371962,30.6497047 36.6153402,30.6314714 C37.083912,30.5294365 37.415001,30.1440215 37.4155856,29.7002238 L37.4155856,0.958013787 C37.4155856,0.428887665 36.9502292,0 36.3762313,0 Z" id="Shape" fill="#CFD8DC"></path>
                            <ellipse id="Oval" fill="#FFC107" cx="11.1965766" cy="8.70769376" rx="5.19657663" ry="4.79033839"></ellipse>
                            <path d="M37.3077967,28.461895 L25.8752892,7.38424436 C25.7038985,7.06852915 25.3579992,6.86535765 24.975269,6.8553877 C24.5940977,6.85341167 24.2401112,7.03691272 24.0440691,7.33825683 L16.4050537,19.6629165 L11.1315023,14.7997345 C10.911978,14.5903655 10.5993046,14.4869834 10.2854619,14.5199471 C9.97288582,14.5511144 9.6924638,14.710993 9.52263211,14.9549425 L0.168735722,28.3679439 C-0.144717243,28.8112026 -0.00889087282,29.4048191 0.471957864,29.6936783 C0.641399799,29.7955335 0.839488043,29.849515 1.04176605,29.8490659 L36.3787405,29.8490659 C36.9527384,29.8490659 37.4180948,29.4200884 37.4179973,28.8909623 C37.4178999,28.7420417 37.380192,28.5950971 37.3077967,28.461895 Z" id="Shape" fill="#00BCD4"></path>
                        </g>
                        <path d="M123.117647,137.243316 L123.117647,133.210744 L124.882353,133.210744 L124.882353,137.243316 L129,137.243316 L129,138.971561 L124.882353,138.971561 L124.882353,143.004132 L123.117647,143.004132 L123.117647,138.971561 L119,138.971561 L119,137.243316 L123.117647,137.243316 Z" id="Combined-Shape-Copy-6" fill="#F5A623"></path>
                        <path d="M249.647059,114.257657 L249.647059,112.644628 L250.352941,112.644628 L250.352941,114.257657 L252,114.257657 L252,114.948955 L250.352941,114.948955 L250.352941,116.561983 L249.647059,116.561983 L249.647059,114.948955 L248,114.948955 L248,114.257657 L249.647059,114.257657 Z" id="Combined-Shape-Copy-7" fill="#8954BA"></path>
                        <path d="M240.588235,152.394263 L240.588235,145.942149 L243.411765,145.942149 L243.411765,152.394263 L250,152.394263 L250,155.159456 L243.411765,155.159456 L243.411765,161.61157 L240.588235,161.61157 L240.588235,155.159456 L234,155.159456 L234,152.394263 L240.588235,152.394263 Z" id="Combined-Shape-Copy-8" fill="#D0021B"></path>
                        <path d="M263.470588,137.588965 L263.470588,135.169421 L264.529412,135.169421 L264.529412,137.588965 L267,137.588965 L267,138.625912 L264.529412,138.625912 L264.529412,141.045455 L263.470588,141.045455 L263.470588,138.625912 L261,138.625912 L261,137.588965 L263.470588,137.588965 Z" id="Combined-Shape-Copy-9" fill="#BBAAB2"></path>
                        <path d="M293.470588,98.4154108 L293.470588,95.9958678 L294.529412,95.9958678 L294.529412,98.4154108 L297,98.4154108 L297,99.4523578 L294.529412,99.4523578 L294.529412,101.871901 L293.470588,101.871901 L293.470588,99.4523578 L291,99.4523578 L291,98.4154108 L293.470588,98.4154108 Z" id="Combined-Shape-Copy-10" fill="#F2559D"></path>
                    </g>
                </g>
            </g>
        </g>
    </g>
</svg>
